<?xml version="1.0" standalone="no"?>
<!DOCTYPE svg PUBLIC "-//W3C//DTD SVG 20010904//EN"
 "http://www.w3.org/TR/2001/REC-SVG-20010904/DTD/svg10.dtd">
<svg version="1.0" xmlns="http://www.w3.org/2000/svg"
 width="1032.000000pt" height="1032.000000pt" viewBox="0 0 1032.000000 1032.000000"
 preserveAspectRatio="xMidYMid meet">
<metadata>
Created by potrace 1.14, written by Peter Selinger 2001-2017
</metadata>
<g transform="translate(0.000000,1032.000000) scale(0.100000,-0.100000)"
fill="#000000" stroke="none">
<path d="M3230 8073 c0 -5 -12 -9 -26 -10 -15 0 -29 -5 -33 -10 -3 -4 -87 -62
-186 -129 -213 -142 -1336 -896 -1525 -1024 -8 -5 -139 -93 -290 -195 -151
-101 -280 -189 -287 -195 -7 -5 -15 -10 -18 -10 -3 0 -23 -12 -44 -27 -60 -43
-601 -408 -724 -488 -37 -25 -67 -47 -67 -50 0 -9 121 -190 129 -193 4 -1 40
20 80 48 40 27 77 50 82 50 5 0 9 4 9 8 0 5 12 15 28 23 15 8 36 22 46 32 11
9 24 17 28 17 5 0 18 8 29 18 10 11 32 25 47 33 15 8 36 22 46 32 11 9 25 17
32 17 7 0 14 4 16 8 2 5 147 105 323 223 176 118 325 218 330 222 34 26 280
187 287 187 4 0 8 4 8 9 0 5 9 13 20 16 11 3 26 12 32 18 7 7 162 112 343 234
182 121 439 294 572 384 133 90 252 168 263 174 11 5 20 13 20 17 0 5 6 8 14
8 8 0 16 4 18 8 4 10 96 72 108 72 4 0 10 4 12 8 2 5 65 49 140 100 l136 91
89 -57 c48 -31 93 -60 98 -65 10 -8 254 -169 555 -367 96 -63 177 -117 180
-120 3 -3 17 -11 33 -19 15 -8 27 -18 27 -23 0 -4 5 -8 11 -8 6 0 25 -11 43
-25 18 -14 38 -25 44 -25 7 0 12 -4 12 -10 0 -5 7 -10 15 -10 8 0 15 -4 15
-10 0 -5 7 -10 15 -10 8 0 15 -4 15 -8 0 -5 11 -14 25 -20 14 -7 31 -17 38
-23 7 -6 86 -59 177 -119 91 -60 170 -112 175 -117 6 -4 22 -14 36 -21 14 -8
38 -24 54 -36 l28 -22 -74 -50 c-41 -27 -76 -51 -79 -54 -3 -3 -13 -9 -22 -15
-19 -11 -456 -305 -473 -318 -5 -4 -77 -53 -160 -107 -82 -55 -154 -103 -160
-107 -5 -5 -38 -26 -72 -48 -34 -22 -62 -45 -63 -51 0 -15 120 -196 129 -192
3 2 18 10 34 17 15 8 27 18 27 23 0 4 4 8 9 8 6 0 55 32 111 70 56 39 105 70
110 70 4 0 10 3 12 8 2 4 30 25 63 47 33 21 62 42 63 47 2 4 7 8 12 8 7 0 349
226 376 248 5 5 21 15 35 22 13 7 26 16 29 19 3 4 100 69 215 146 116 77 215
144 220 148 6 5 55 39 111 75 138 91 397 265 409 275 32 25 249 167 256 167 4
0 9 3 11 8 2 4 134 94 293 201 160 107 372 250 472 318 100 68 186 123 192
123 6 0 139 -85 297 -190 157 -104 289 -190 294 -190 4 0 10 -3 12 -7 2 -5 44
-35 93 -68 92 -61 97 -64 156 -102 19 -12 39 -27 46 -32 7 -6 16 -11 21 -11 5
0 15 -7 22 -15 7 -9 27 -22 45 -31 18 -8 42 -24 53 -34 12 -11 23 -20 26 -20
2 0 91 -58 198 -128 106 -71 308 -204 448 -297 140 -93 426 -282 635 -420 209
-138 404 -266 433 -285 28 -18 52 -36 52 -39 0 -3 -262 -6 -582 -5 -321 0
-587 -1 -593 -3 -10 -3 -11 -2040 -1 -2050 6 -7 216 -4 227 3 4 2 8 377 8 832
0 455 0 861 1 902 l0 75 671 0 c454 -1 673 3 675 10 7 17 9 155 3 155 -3 0 -3
20 1 45 8 53 3 59 -111 130 -9 5 -50 32 -90 59 -63 43 -520 345 -974 645 -71
47 -137 90 -147 96 -9 5 -51 34 -93 63 -42 28 -79 52 -82 52 -3 0 -22 14 -43
30 -21 17 -43 30 -49 30 -6 0 -11 5 -11 10 0 6 -6 10 -13 10 -7 0 -23 9 -35
20 -12 11 -25 20 -30 20 -5 0 -17 9 -27 20 -10 11 -22 20 -26 20 -4 0 -135 85
-291 188 -156 103 -413 274 -573 379 -159 106 -295 197 -302 202 -7 6 -16 11
-21 11 -5 0 -17 9 -27 20 -10 11 -22 20 -27 20 -5 0 -63 36 -130 81 -66 45
-128 82 -136 83 -9 2 -57 -25 -107 -59 -169 -115 -846 -570 -871 -585 -45 -28
-619 -415 -630 -425 -6 -5 -27 -19 -47 -30 -20 -11 -37 -23 -37 -27 0 -5 -5
-8 -11 -8 -6 0 -28 -13 -48 -28 -20 -16 -56 -40 -79 -54 l-44 -26 -121 81
c-67 44 -123 84 -125 89 -2 4 -8 8 -14 8 -6 0 -64 36 -129 80 -65 44 -122 80
-127 80 -6 0 -12 4 -14 8 -3 7 -171 120 -538 361 -47 30 -89 59 -95 63 -11 9
-384 255 -592 391 -135 88 -143 93 -143 80z"/>
<path d="M115 5556 c1 -6 5 -18 8 -26 3 -8 25 -67 47 -130 23 -63 45 -124 50
-135 5 -11 21 -54 36 -95 14 -41 40 -111 56 -155 16 -44 42 -116 58 -160 16
-44 40 -108 54 -142 13 -35 22 -63 19 -63 -3 0 -1 -6 5 -12 5 -7 21 -47 36
-89 14 -42 42 -119 62 -170 19 -52 42 -114 50 -139 8 -25 19 -54 24 -65 6 -11
26 -65 46 -120 19 -55 53 -149 76 -210 22 -60 51 -142 65 -182 l25 -72 77 -3
c42 -2 99 -2 127 0 47 3 52 5 62 35 31 93 63 184 71 202 21 45 71 188 71 201
0 8 4 14 8 14 5 0 9 6 9 13 0 6 33 100 72 207 40 107 97 260 126 340 73 197
345 942 350 956 2 8 -35 11 -121 11 l-124 0 -19 -52 c-26 -70 -142 -398 -145
-410 -2 -5 -8 -23 -14 -38 -7 -15 -15 -40 -18 -55 -4 -15 -10 -31 -14 -37 -4
-5 -10 -23 -14 -40 -4 -16 -14 -43 -21 -60 -7 -16 -25 -64 -39 -105 -14 -41
-37 -106 -51 -145 -14 -38 -28 -80 -30 -91 -3 -12 -12 -35 -20 -50 -8 -16 -15
-33 -15 -39 0 -11 -154 -450 -178 -508 -8 -21 -20 -36 -25 -34 -6 2 -27 51
-47 108 -20 58 -40 114 -45 125 -4 10 -9 24 -10 30 -2 7 -16 50 -33 95 -17 46
-44 122 -60 169 -17 47 -44 123 -60 170 -17 47 -57 162 -90 255 -33 94 -83
235 -112 315 -28 80 -53 150 -54 155 -2 6 -6 17 -9 25 -7 19 -67 191 -72 206
-4 15 -254 15 -250 0z"/>
<path d="M3616 5475 c-38 -101 -140 -377 -142 -385 0 -3 -3 -12 -7 -20 -3 -8
-22 -60 -42 -115 -20 -55 -40 -109 -45 -120 -4 -11 -31 -85 -60 -165 -28 -80
-58 -159 -66 -177 -8 -17 -14 -34 -14 -37 0 -6 -134 -373 -150 -411 -4 -11
-36 -96 -70 -190 -33 -93 -69 -191 -80 -217 l-18 -47 91 -3 c163 -5 166 -4
182 59 2 6 17 51 35 100 44 120 43 117 46 128 2 6 19 55 40 110 20 55 41 115
47 133 l10 32 399 0 398 0 16 -37 c8 -21 17 -47 20 -58 2 -11 8 -29 13 -40 6
-11 37 -99 71 -195 34 -96 64 -182 67 -190 4 -8 7 -18 7 -22 1 -3 3 -9 7 -12
7 -7 238 -11 245 -4 4 5 -50 164 -76 223 -5 11 -16 40 -24 65 -8 25 -31 88
-51 140 -20 52 -42 113 -49 135 -12 37 -36 101 -56 150 -4 11 -18 49 -31 85
-12 36 -26 69 -31 75 -4 5 -8 17 -8 27 0 10 -4 26 -9 36 -5 9 -19 43 -30 75
-12 31 -30 81 -41 110 -10 28 -51 140 -90 247 -39 107 -77 211 -84 230 -7 19
-23 60 -35 90 -11 31 -21 58 -21 62 0 4 -5 19 -12 35 -6 15 -12 30 -13 33 -1
3 -5 14 -9 25 -5 11 -18 45 -29 76 l-21 57 -123 -1 -123 -1 -34 -91z m174
-236 c0 -11 72 -222 90 -264 5 -11 36 -96 68 -190 33 -93 79 -222 101 -287 23
-64 41 -120 41 -126 0 -10 -628 -14 -634 -3 -3 5 69 217 94 276 5 11 41 112
80 225 39 113 75 214 80 225 5 11 19 50 32 88 12 37 28 67 35 67 7 0 13 -5 13
-11z"/>
<path d="M6175 5562 c-3 -3 -5 -448 -5 -989 l0 -983 283 0 c395 -1 698 -1 795
0 l83 0 -3 106 -3 106 -457 0 -458 0 0 882 0 883 -115 0 c-63 0 -117 -2 -120
-5z"/>
<path d="M2175 3910 c-44 -19 -104 -80 -106 -108 -1 -9 -3 -33 -5 -52 -4 -52
28 -114 73 -144 146 -97 321 50 255 215 -10 26 -75 89 -92 89 -6 0 -11 0 -12
0 -2 1 -19 5 -38 9 -25 6 -46 3 -75 -9z"/>
<path d="M5231 3900 c-44 -28 -55 -39 -74 -77 -24 -46 -23 -114 2 -161 27 -51
113 -96 164 -86 61 11 75 17 100 40 86 79 79 208 -14 275 -45 32 -134 36 -178
9z"/>
<path d="M8014 3483 c-32 -6 -72 -54 -79 -93 -7 -45 23 -96 69 -115 75 -32
166 22 166 99 0 75 -73 127 -156 109z"/>
<path d="M606 3443 c-2 -2 -12 -5 -23 -7 -170 -33 -317 -163 -376 -331 -40
-116 -52 -265 -31 -395 7 -45 9 -53 15 -79 2 -8 20 -48 40 -90 92 -192 269
-295 492 -286 94 4 103 6 176 34 112 42 191 115 246 226 19 39 36 86 37 104
l3 35 -90 1 c-119 1 -122 0 -130 -42 -10 -52 -98 -137 -161 -156 -68 -20 -179
-14 -237 13 -87 41 -156 139 -178 253 -10 56 -13 186 -5 227 3 14 8 39 12 55
15 73 68 150 147 212 27 22 112 41 167 37 48 -2 95 -9 95 -14 0 -1 8 -3 17 -5
53 -10 148 -118 148 -169 0 -24 17 -28 103 -28 128 0 120 -3 112 35 -26 117
-81 206 -178 284 -63 51 -187 86 -305 88 -51 0 -94 -1 -96 -2z"/>
<path d="M4259 3258 c-1 -51 -1 -99 0 -105 1 -9 -14 -13 -52 -12 -30 1 -59 -1
-64 -4 -5 -3 -9 -39 -8 -79 l0 -73 63 -3 62 -3 -1 -262 c0 -144 3 -276 7 -292
4 -17 20 -49 35 -72 54 -78 164 -111 302 -89 l49 8 -7 36 c-4 20 -9 51 -12 67
-9 52 -18 62 -58 57 -49 -6 -94 15 -102 47 -4 14 -7 132 -7 261 l-1 235 85 5
85 5 2 73 c2 85 4 84 -100 86 l-72 1 0 100 0 100 -103 3 -102 3 -1 -93z"/>
<path d="M7399 3333 c0 -10 -1 -56 -1 -103 l-1 -85 -61 -5 -61 -5 0 -75 0 -75
61 -3 61 -3 0 -262 c0 -281 5 -314 51 -375 25 -33 83 -69 119 -75 10 -1 23 -5
28 -7 15 -7 104 -5 154 4 42 8 43 9 36 40 -6 29 -15 75 -19 103 -4 22 -16 27
-65 24 -39 -2 -53 2 -69 19 -27 30 -28 35 -27 295 l0 230 85 5 86 5 0 78 1 77
-31 1 c-17 0 -56 1 -86 2 l-55 2 0 100 0 100 -103 3 c-92 2 -102 1 -103 -15z"/>
<path d="M5198 3149 c-75 -11 -142 -60 -170 -124 -12 -29 -13 -27 -16 43 l-3
72 -99 0 -100 0 0 -437 0 -438 62 2 c35 1 81 2 103 2 l40 1 0 276 c0 316 3
333 83 389 40 27 51 30 126 30 l83 0 -1 90 -1 89 -30 6 c-16 3 -51 3 -77 -1z"/>
<path d="M1628 3135 c-179 -50 -290 -216 -289 -435 0 -183 69 -317 203 -395
69 -41 91 -46 209 -50 140 -5 247 43 329 146 109 138 124 377 35 549 -41 80
-135 156 -227 184 -59 17 -200 18 -260 1z m225 -174 c93 -57 135 -214 98 -368
-27 -111 -100 -177 -193 -175 -60 1 -71 5 -112 32 -30 21 -98 120 -82 120 3 0
1 12 -5 28 -13 32 -15 129 -4 192 15 93 73 169 144 190 42 13 119 3 154 -19z"/>
<path d="M2721 3137 c-6 -6 -11 -8 -11 -4 0 4 -18 -2 -39 -12 -43 -22 -111
-96 -111 -120 0 -12 -2 -13 -8 -3 -5 7 -8 42 -7 77 l1 65 -98 0 -98 0 0 -57
c-1 -116 -2 -779 -1 -798 1 -19 8 -20 101 -20 55 0 100 2 101 5 1 3 2 131 4
285 2 154 5 287 7 295 27 104 175 160 270 102 69 -43 73 -61 75 -386 2 -159 5
-291 7 -294 5 -4 26 -5 146 -3 l55 1 -1 318 c-1 242 -4 326 -15 357 -14 41
-53 111 -73 130 -18 18 -106 68 -106 60 0 -4 -6 -2 -14 4 -18 15 -170 13 -185
-2z"/>
<path d="M3569 3146 c-3 -3 -14 -7 -25 -9 -87 -17 -159 -61 -198 -123 -55 -87
-43 -220 25 -286 46 -45 138 -84 222 -94 16 -2 32 -6 37 -9 5 -3 28 -8 52 -11
24 -4 48 -10 54 -15 6 -5 13 -6 16 -4 10 10 68 -53 68 -73 0 -69 -65 -115
-160 -114 -90 0 -150 37 -173 107 -3 9 -57 9 -102 0 -11 -2 -37 -4 -57 -4 -31
-1 -38 -5 -38 -21 0 -59 70 -154 140 -190 66 -34 145 -48 248 -45 160 4 270
60 324 164 48 92 35 192 -34 261 -30 30 -99 67 -141 75 -10 3 -26 6 -35 9 -16
5 -30 8 -97 21 -69 13 -133 36 -155 55 -27 23 -32 79 -10 105 38 46 143 65
208 38 39 -16 49 -25 75 -65 17 -27 20 -27 80 -22 76 6 108 12 115 18 13 13
-36 105 -77 146 -62 61 -121 81 -251 87 -58 3 -108 3 -111 -1z"/>
<path d="M5495 3140 l-50 -5 1 -325 c1 -314 1 -327 23 -375 54 -120 134 -175
261 -178 44 -1 112 13 144 31 37 20 116 102 116 120 0 6 4 12 8 12 5 0 8 -29
7 -65 -1 -36 2 -70 6 -76 9 -15 187 -18 192 -4 2 6 3 201 3 435 l-1 425 -102
3 c-101 3 -103 2 -104 -20 0 -13 0 -137 -1 -276 0 -161 -4 -264 -11 -285 -39
-110 -194 -156 -279 -83 -54 46 -58 69 -58 380 l0 284 -52 4 c-29 1 -75 1
-103 -2z"/>
<path d="M6660 3132 c-125 -41 -212 -132 -260 -272 -19 -54 -21 -236 -4 -299
14 -54 40 -114 59 -140 36 -50 107 -108 164 -134 60 -28 76 -31 171 -31 86 -1
116 3 165 22 112 42 191 136 209 248 l7 40 -93 -1 c-112 -2 -108 -2 -108 -18
0 -26 -61 -99 -95 -113 -69 -28 -170 -9 -213 41 -54 62 -66 104 -66 235 0 123
19 178 80 228 65 53 164 61 225 18 27 -18 69 -80 69 -100 0 -17 6 -18 115 -18
36 0 69 1 75 1 17 2 5 66 -23 123 -23 47 -63 91 -123 137 -5 4 -36 17 -68 28
-78 27 -210 29 -286 5z"/>
<path d="M8048 3142 l-98 -3 0 -32 c-1 -18 -2 -213 -3 -435 l-2 -402 43 -1
c23 0 67 -1 98 -1 31 0 59 4 63 10 7 11 7 860 0 864 -2 2 -48 2 -101 0z"/>
<path d="M8603 3131 c-125 -42 -222 -148 -257 -282 -23 -88 -19 -243 8 -321
62 -176 192 -270 382 -277 185 -6 338 97 398 268 48 133 34 320 -31 437 -44
78 -117 139 -209 173 -68 24 -220 25 -291 2z m241 -170 c44 -28 69 -62 90
-125 48 -141 8 -332 -80 -387 -38 -23 -52 -27 -104 -33 -35 -3 -100 20 -130
47 -71 63 -103 230 -68 352 6 22 12 42 13 45 8 40 74 106 120 119 48 14 120 6
159 -18z"/>
<path d="M9720 3144 c-79 -29 -140 -76 -160 -124 -18 -43 -25 -29 -25 48 l0
67 -97 3 -98 3 0 -43 c-1 -59 -1 -688 -1 -768 l1 -65 57 2 c32 1 78 2 103 2
l45 1 0 268 c-1 147 2 282 6 300 33 152 258 190 325 54 17 -33 19 -68 22 -326
1 -160 4 -291 6 -293 3 -4 76 -6 151 -4 l50 1 -1 308 c-1 169 -4 321 -7 338
-17 99 -100 197 -190 221 -31 9 -169 13 -187 7z"/>
</g>
</svg>
